<svg width="820" height="902" viewBox="0 0 820 902" fill="none" xmlns="http://www.w3.org/2000/svg">
<rect x="10.4998" y="13.4758" width="799" height="15.0282" rx="7.5" fill="#AEAEB2" stroke="#85858B"/>
<rect x="14.4596" y="17.4261" width="791.079" height="7.12807" rx="3.5" fill="#85858B" stroke="#85858B"/>
<g filter="url(#filter0_dd_0_1)">
<mask id="path-3-inside-1_0_1" fill="white">
<path fill-rule="evenodd" clip-rule="evenodd" d="M790 22.9899C790 21.8853 789.104 20.9899 788 20.9899H32C30.8954 20.9899 30 21.8853 30 22.9899L30 838.495C30 839.041 30.2228 839.562 30.6167 839.94L52.3666 860.769C53.1401 861.509 54.3597 861.509 55.1332 860.769L76.1165 840.674C76.8899 839.933 78.1096 839.933 78.8831 840.674L99.8665 860.769C100.64 861.509 101.86 861.509 102.633 860.769L123.616 840.674C124.39 839.933 125.61 839.933 126.383 840.674L147.366 860.769C148.14 861.509 149.36 861.509 150.133 860.769L171.116 840.674C171.89 839.933 173.11 839.933 173.883 840.674L194.866 860.769C195.64 861.509 196.86 861.509 197.633 860.769L218.616 840.674C219.39 839.933 220.61 839.933 221.383 840.674L242.366 860.769C243.14 861.509 244.36 861.509 245.133 860.769L266.116 840.674C266.89 839.933 268.11 839.933 268.883 840.674L289.866 860.769C290.64 861.509 291.86 861.509 292.633 860.769L313.616 840.674C314.39 839.933 315.61 839.933 316.383 840.674L337.366 860.769C338.14 861.509 339.36 861.509 340.133 860.769L361.116 840.674C361.89 839.933 363.11 839.933 363.883 840.674L384.866 860.769C385.64 861.509 386.86 861.509 387.633 860.769L408.616 840.674C409.39 839.933 410.61 839.933 411.383 840.674L432.366 860.769C433.14 861.509 434.36 861.509 435.133 860.769L456.116 840.674C456.89 839.933 458.11 839.933 458.883 840.674L479.866 860.769C480.64 861.509 481.86 861.509 482.633 860.769L503.616 840.674C504.39 839.933 505.61 839.933 506.383 840.674L527.366 860.769C528.14 861.509 529.36 861.509 530.133 860.769L551.116 840.674C551.89 839.933 553.11 839.933 553.883 840.674L574.866 860.769C575.64 861.509 576.86 861.509 577.633 860.769L598.616 840.674C599.39 839.933 600.61 839.933 601.383 840.674L622.366 860.769C623.14 861.509 624.36 861.509 625.133 860.769L646.116 840.674C646.89 839.933 648.11 839.933 648.883 840.674L669.866 860.769C670.64 861.509 671.86 861.509 672.633 860.769L693.616 840.674C694.39 839.933 695.61 839.933 696.383 840.674L717.366 860.769C718.14 861.509 719.36 861.509 720.133 860.769L741.116 840.674C741.89 839.933 743.11 839.933 743.883 840.674L764.866 860.769C765.64 861.509 766.86 861.509 767.633 860.769L789.383 839.94C789.777 839.562 790 839.041 790 838.495L790 22.9899Z"/>
</mask>
<path fill-rule="evenodd" clip-rule="evenodd" d="M790 22.9899C790 21.8853 789.104 20.9899 788 20.9899H32C30.8954 20.9899 30 21.8853 30 22.9899L30 838.495C30 839.041 30.2228 839.562 30.6167 839.94L52.3666 860.769C53.1401 861.509 54.3597 861.509 55.1332 860.769L76.1165 840.674C76.8899 839.933 78.1096 839.933 78.8831 840.674L99.8665 860.769C100.64 861.509 101.86 861.509 102.633 860.769L123.616 840.674C124.39 839.933 125.61 839.933 126.383 840.674L147.366 860.769C148.14 861.509 149.36 861.509 150.133 860.769L171.116 840.674C171.89 839.933 173.11 839.933 173.883 840.674L194.866 860.769C195.64 861.509 196.86 861.509 197.633 860.769L218.616 840.674C219.39 839.933 220.61 839.933 221.383 840.674L242.366 860.769C243.14 861.509 244.36 861.509 245.133 860.769L266.116 840.674C266.89 839.933 268.11 839.933 268.883 840.674L289.866 860.769C290.64 861.509 291.86 861.509 292.633 860.769L313.616 840.674C314.39 839.933 315.61 839.933 316.383 840.674L337.366 860.769C338.14 861.509 339.36 861.509 340.133 860.769L361.116 840.674C361.89 839.933 363.11 839.933 363.883 840.674L384.866 860.769C385.64 861.509 386.86 861.509 387.633 860.769L408.616 840.674C409.39 839.933 410.61 839.933 411.383 840.674L432.366 860.769C433.14 861.509 434.36 861.509 435.133 860.769L456.116 840.674C456.89 839.933 458.11 839.933 458.883 840.674L479.866 860.769C480.64 861.509 481.86 861.509 482.633 860.769L503.616 840.674C504.39 839.933 505.61 839.933 506.383 840.674L527.366 860.769C528.14 861.509 529.36 861.509 530.133 860.769L551.116 840.674C551.89 839.933 553.11 839.933 553.883 840.674L574.866 860.769C575.64 861.509 576.86 861.509 577.633 860.769L598.616 840.674C599.39 839.933 600.61 839.933 601.383 840.674L622.366 860.769C623.14 861.509 624.36 861.509 625.133 860.769L646.116 840.674C646.89 839.933 648.11 839.933 648.883 840.674L669.866 860.769C670.64 861.509 671.86 861.509 672.633 860.769L693.616 840.674C694.39 839.933 695.61 839.933 696.383 840.674L717.366 860.769C718.14 861.509 719.36 861.509 720.133 860.769L741.116 840.674C741.89 839.933 743.11 839.933 743.883 840.674L764.866 860.769C765.64 861.509 766.86 861.509 767.633 860.769L789.383 839.94C789.777 839.562 790 839.041 790 838.495L790 22.9899Z" fill="url(#paint0_linear_0_1)"/>
<path d="M789.383 839.94L788.691 839.217L789.383 839.94ZM790 838.495H789H790ZM764.866 860.769L764.175 861.491L764.866 860.769ZM767.633 860.769L768.325 861.491L767.633 860.769ZM741.116 840.674L740.425 839.951L741.116 840.674ZM743.883 840.674L744.575 839.951L743.883 840.674ZM717.366 860.769L716.675 861.491L717.366 860.769ZM720.133 860.769L720.825 861.491L720.133 860.769ZM693.616 840.674L692.925 839.951L693.616 840.674ZM696.383 840.674L697.075 839.951L696.383 840.674ZM669.866 860.769L669.175 861.491L669.866 860.769ZM672.633 860.769L673.325 861.491L672.633 860.769ZM646.116 840.674L645.425 839.951L646.116 840.674ZM648.883 840.674L649.575 839.951L648.883 840.674ZM622.366 860.769L621.675 861.491L622.366 860.769ZM625.133 860.769L625.825 861.491L625.133 860.769ZM598.616 840.674L597.925 839.951L598.616 840.674ZM601.383 840.674L602.075 839.951L601.383 840.674ZM574.866 860.769L574.175 861.491L574.866 860.769ZM577.633 860.769L578.325 861.491L577.633 860.769ZM551.116 840.674L550.425 839.951L551.116 840.674ZM553.883 840.674L554.575 839.951L553.883 840.674ZM527.366 860.769L526.675 861.491L527.366 860.769ZM530.133 860.769L530.825 861.491L530.133 860.769ZM503.616 840.674L504.308 841.396L503.616 840.674ZM506.383 840.674L505.691 841.396L506.383 840.674ZM479.866 860.769L480.558 860.046L479.866 860.769ZM482.633 860.769L481.941 860.046L482.633 860.769ZM456.116 840.674L456.808 841.396L456.116 840.674ZM458.883 840.674L458.191 841.396L458.883 840.674ZM432.366 860.769L433.058 860.046L432.366 860.769ZM435.133 860.769L434.441 860.046L435.133 860.769ZM408.616 840.674L409.308 841.396L408.616 840.674ZM411.383 840.674L410.691 841.396L411.383 840.674ZM384.866 860.769L385.558 860.046L384.866 860.769ZM387.633 860.769L386.941 860.046L387.633 860.769ZM361.116 840.674L361.808 841.396L361.116 840.674ZM363.883 840.674L363.191 841.396L363.883 840.674ZM337.366 860.769L338.058 860.046L337.366 860.769ZM340.133 860.769L339.441 860.046L340.133 860.769ZM313.616 840.674L314.308 841.396L313.616 840.674ZM316.383 840.674L315.691 841.396L316.383 840.674ZM289.866 860.769L290.558 860.046L289.866 860.769ZM292.633 860.769L291.941 860.046L292.633 860.769ZM266.116 840.674L266.808 841.396L266.116 840.674ZM268.883 840.674L268.191 841.396L268.883 840.674ZM242.366 860.769L243.058 860.046L242.366 860.769ZM245.133 860.769L244.441 860.046L245.133 860.769ZM218.616 840.674L219.308 841.396L218.616 840.674ZM221.383 840.674L220.691 841.396L221.383 840.674ZM194.866 860.769L195.558 860.046L194.866 860.769ZM197.633 860.769L196.941 860.046L197.633 860.769ZM171.116 840.674L171.808 841.396L171.116 840.674ZM173.883 840.674L173.191 841.396L173.883 840.674ZM147.366 860.769L148.058 860.046L147.366 860.769ZM150.133 860.769L149.441 860.046L150.133 860.769ZM123.616 840.674L124.308 841.396L123.616 840.674ZM126.383 840.674L125.691 841.396L126.383 840.674ZM99.8665 860.769L100.558 860.046L99.8665 860.769ZM102.633 860.769L101.941 860.046L102.633 860.769ZM76.1165 840.674L76.8081 841.396L76.1165 840.674ZM78.8831 840.674L78.1914 841.396L78.8831 840.674ZM52.3666 860.769L53.0583 860.046L52.3666 860.769ZM55.1332 860.769L54.4416 860.046L55.1332 860.769ZM30.6167 839.94L31.3084 839.217L30.6167 839.94ZM790 22.9899H789H790ZM32 21.9899H788V19.9899H32V21.9899ZM31 838.495L31 22.9899L29 22.9899L29 838.495H31ZM53.0583 860.046L31.3084 839.217L29.9251 840.662L51.675 861.491L53.0583 860.046ZM75.4248 839.951L54.4416 860.046L55.8249 861.491L76.8081 841.396L75.4248 839.951ZM100.558 860.046L79.5747 839.951L78.1914 841.396L99.1748 861.491L100.558 860.046ZM122.925 839.951L101.941 860.046L103.325 861.491L124.308 841.396L122.925 839.951ZM148.058 860.046L127.075 839.951L125.691 841.396L146.675 861.491L148.058 860.046ZM170.425 839.951L149.441 860.046L150.825 861.491L171.808 841.396L170.425 839.951ZM195.558 860.046L174.575 839.951L173.191 841.396L194.175 861.491L195.558 860.046ZM217.925 839.951L196.941 860.046L198.325 861.491L219.308 841.396L217.925 839.951ZM243.058 860.046L222.075 839.951L220.691 841.396L241.675 861.491L243.058 860.046ZM265.425 839.951L244.441 860.046L245.825 861.491L266.808 841.396L265.425 839.951ZM290.558 860.046L269.575 839.951L268.191 841.396L289.175 861.491L290.558 860.046ZM312.925 839.951L291.941 860.046L293.325 861.491L314.308 841.396L312.925 839.951ZM338.058 860.046L317.075 839.951L315.691 841.396L336.675 861.491L338.058 860.046ZM360.425 839.951L339.441 860.046L340.825 861.491L361.808 841.396L360.425 839.951ZM385.558 860.046L364.575 839.951L363.191 841.396L384.175 861.491L385.558 860.046ZM407.925 839.951L386.941 860.046L388.325 861.491L409.308 841.396L407.925 839.951ZM433.058 860.046L412.075 839.951L410.691 841.396L431.675 861.491L433.058 860.046ZM455.425 839.951L434.441 860.046L435.825 861.491L456.808 841.396L455.425 839.951ZM480.558 860.046L459.575 839.951L458.191 841.396L479.175 861.491L480.558 860.046ZM502.925 839.951L481.941 860.046L483.325 861.491L504.308 841.396L502.925 839.951ZM528.058 860.046L507.075 839.951L505.691 841.396L526.675 861.491L528.058 860.046ZM550.425 839.951L529.441 860.046L530.825 861.491L551.808 841.396L550.425 839.951ZM575.558 860.046L554.575 839.951L553.191 841.396L574.175 861.491L575.558 860.046ZM597.925 839.951L576.941 860.046L578.325 861.491L599.308 841.396L597.925 839.951ZM623.058 860.046L602.075 839.951L600.691 841.396L621.675 861.491L623.058 860.046ZM645.425 839.951L624.441 860.046L625.825 861.491L646.808 841.396L645.425 839.951ZM670.558 860.046L649.575 839.951L648.191 841.396L669.175 861.491L670.558 860.046ZM692.925 839.951L671.941 860.046L673.325 861.491L694.308 841.396L692.925 839.951ZM718.058 860.046L697.075 839.951L695.691 841.396L716.675 861.491L718.058 860.046ZM740.425 839.951L719.441 860.046L720.825 861.491L741.808 841.396L740.425 839.951ZM765.558 860.046L744.575 839.951L743.191 841.396L764.175 861.491L765.558 860.046ZM768.325 861.491L790.075 840.662L788.691 839.217L766.941 860.046L768.325 861.491ZM789 22.9899L789 838.495H791L791 22.9899L789 22.9899ZM790.075 840.662C790.666 840.096 791 839.313 791 838.495H789C789 838.768 788.888 839.029 788.691 839.217L790.075 840.662ZM764.175 861.491C765.335 862.602 767.164 862.602 768.325 861.491L766.941 860.046C766.555 860.417 765.945 860.417 765.558 860.046L764.175 861.491ZM741.808 841.396C742.195 841.026 742.805 841.026 743.191 841.396L744.575 839.951C743.414 838.84 741.585 838.84 740.425 839.951L741.808 841.396ZM716.675 861.491C717.835 862.602 719.664 862.602 720.825 861.491L719.441 860.046C719.055 860.417 718.445 860.417 718.058 860.046L716.675 861.491ZM694.308 841.396C694.695 841.026 695.305 841.026 695.691 841.396L697.075 839.951C695.914 838.84 694.085 838.84 692.925 839.951L694.308 841.396ZM669.175 861.491C670.335 862.602 672.164 862.602 673.325 861.491L671.941 860.046C671.555 860.417 670.945 860.417 670.558 860.046L669.175 861.491ZM646.808 841.396C647.195 841.026 647.805 841.026 648.191 841.396L649.575 839.951C648.414 838.84 646.585 838.84 645.425 839.951L646.808 841.396ZM621.675 861.491C622.835 862.602 624.664 862.602 625.825 861.491L624.441 860.046C624.055 860.417 623.445 860.417 623.058 860.046L621.675 861.491ZM599.308 841.396C599.695 841.026 600.305 841.026 600.691 841.396L602.075 839.951C600.914 838.84 599.085 838.84 597.925 839.951L599.308 841.396ZM574.175 861.491C575.335 862.602 577.164 862.602 578.325 861.491L576.941 860.046C576.555 860.417 575.945 860.417 575.558 860.046L574.175 861.491ZM551.808 841.396C552.195 841.026 552.805 841.026 553.191 841.396L554.575 839.951C553.414 838.84 551.585 838.84 550.425 839.951L551.808 841.396ZM526.675 861.491C527.835 862.602 529.665 862.602 530.825 861.491L529.441 860.046C529.055 860.417 528.445 860.417 528.058 860.046L526.675 861.491ZM504.308 841.396C504.695 841.026 505.305 841.026 505.691 841.396L507.075 839.951C505.915 838.84 504.085 838.84 502.925 839.951L504.308 841.396ZM479.175 861.491C480.335 862.602 482.165 862.602 483.325 861.491L481.941 860.046C481.555 860.417 480.945 860.417 480.558 860.046L479.175 861.491ZM456.808 841.396C457.195 841.026 457.805 841.026 458.191 841.396L459.575 839.951C458.415 838.84 456.585 838.84 455.425 839.951L456.808 841.396ZM431.675 861.491C432.835 862.602 434.665 862.602 435.825 861.491L434.441 860.046C434.055 860.417 433.445 860.417 433.058 860.046L431.675 861.491ZM409.308 841.396C409.695 841.026 410.305 841.026 410.691 841.396L412.075 839.951C410.915 838.84 409.085 838.84 407.925 839.951L409.308 841.396ZM384.175 861.491C385.335 862.602 387.165 862.602 388.325 861.491L386.941 860.046C386.555 860.417 385.945 860.417 385.558 860.046L384.175 861.491ZM361.808 841.396C362.195 841.026 362.805 841.026 363.191 841.396L364.575 839.951C363.415 838.84 361.585 838.84 360.425 839.951L361.808 841.396ZM336.675 861.491C337.835 862.602 339.665 862.602 340.825 861.491L339.441 860.046C339.055 860.417 338.445 860.417 338.058 860.046L336.675 861.491ZM314.308 841.396C314.695 841.026 315.305 841.026 315.691 841.396L317.075 839.951C315.915 838.84 314.085 838.84 312.925 839.951L314.308 841.396ZM289.175 861.491C290.335 862.602 292.165 862.602 293.325 861.491L291.941 860.046C291.555 860.417 290.945 860.417 290.558 860.046L289.175 861.491ZM266.808 841.396C267.195 841.026 267.805 841.026 268.191 841.396L269.575 839.951C268.415 838.84 266.585 838.84 265.425 839.951L266.808 841.396ZM241.675 861.491C242.835 862.602 244.665 862.602 245.825 861.491L244.441 860.046C244.055 860.417 243.445 860.417 243.058 860.046L241.675 861.491ZM219.308 841.396C219.695 841.026 220.305 841.026 220.691 841.396L222.075 839.951C220.915 838.84 219.085 838.84 217.925 839.951L219.308 841.396ZM194.175 861.491C195.335 862.602 197.165 862.602 198.325 861.491L196.941 860.046C196.555 860.417 195.945 860.417 195.558 860.046L194.175 861.491ZM171.808 841.396C172.195 841.026 172.805 841.026 173.191 841.396L174.575 839.951C173.415 838.84 171.585 838.84 170.425 839.951L171.808 841.396ZM146.675 861.491C147.835 862.602 149.665 862.602 150.825 861.491L149.441 860.046C149.055 860.417 148.445 860.417 148.058 860.046L146.675 861.491ZM124.308 841.396C124.695 841.026 125.305 841.026 125.691 841.396L127.075 839.951C125.915 838.84 124.085 838.84 122.925 839.951L124.308 841.396ZM99.1748 861.491C100.335 862.602 102.165 862.602 103.325 861.491L101.941 860.046C101.555 860.417 100.945 860.417 100.558 860.046L99.1748 861.491ZM76.8081 841.396C77.1949 841.026 77.8047 841.026 78.1914 841.396L79.5747 839.951C78.4145 838.84 76.585 838.84 75.4248 839.951L76.8081 841.396ZM51.675 861.491C52.8352 862.602 54.6647 862.602 55.8249 861.491L54.4416 860.046C54.0548 860.417 53.445 860.417 53.0583 860.046L51.675 861.491ZM29 838.495C29 839.313 29.3342 840.096 29.9251 840.662L31.3084 839.217C31.1114 839.029 31 838.768 31 838.495H29ZM788 21.9899C788.552 21.9899 789 22.4376 789 22.9899L791 22.9899C791 21.333 789.656 19.9899 788 19.9899V21.9899ZM32 19.9899C30.3431 19.9899 29 21.333 29 22.9899L31 22.9899C31 22.4376 31.4477 21.9899 32 21.9899V19.9899Z" fill="#EBEBEC" mask="url(#path-3-inside-1_0_1)"/>
</g>
<defs>
<filter id="filter0_dd_0_1" x="0" y="0.989868" width="820" height="900.334" filterUnits="userSpaceOnUse" color-interpolation-filters="sRGB">
<feFlood flood-opacity="0" result="BackgroundImageFix"/>
<feColorMatrix in="SourceAlpha" type="matrix" values="0 0 0 0 0 0 0 0 0 0 0 0 0 0 0 0 0 0 127 0" result="hardAlpha"/>
<feOffset dy="10"/>
<feGaussianBlur stdDeviation="15"/>
<feColorMatrix type="matrix" values="0 0 0 0 0.203922 0 0 0 0 0.203922 0 0 0 0 0.243137 0 0 0 0.15 0"/>
<feBlend mode="normal" in2="BackgroundImageFix" result="effect1_dropShadow_0_1"/>
<feColorMatrix in="SourceAlpha" type="matrix" values="0 0 0 0 0 0 0 0 0 0 0 0 0 0 0 0 0 0 127 0" result="hardAlpha"/>
<feOffset dy="4"/>
<feGaussianBlur stdDeviation="5"/>
<feColorMatrix type="matrix" values="0 0 0 0 0.203922 0 0 0 0 0.203922 0 0 0 0 0.243137 0 0 0 0.3 0"/>
<feBlend mode="normal" in2="effect1_dropShadow_0_1" result="effect2_dropShadow_0_1"/>
<feBlend mode="normal" in="SourceGraphic" in2="effect2_dropShadow_0_1" result="shape"/>
</filter>
<linearGradient id="paint0_linear_0_1" x1="520.623" y1="20.9899" x2="520.623" y2="928.145" gradientUnits="userSpaceOnUse">
<stop stop-color="#E8E8E8"/>
<stop offset="0.0760776" stop-color="white"/>
<stop offset="0.497673" stop-color="white"/>
<stop offset="0.862458" stop-color="#E8E8E8"/>
</linearGradient>
</defs>
</svg>
